<svg xmlns="http://www.w3.org/2000/svg" xmlns:xlink="http://www.w3.org/1999/xlink" viewBox="0 0 1301.92 860.39"><defs><style>.cls-1{fill:url(#radial-gradient);}.cls-2{fill:url(#radial-gradient-2);}.cls-27,.cls-28,.cls-3{fill:none;}.cls-4{isolation:isolate;}.cls-5{clip-path:url(#clip-path);}.cls-6{clip-path:url(#clip-path-2);}.cls-7{fill:url(#Degradado_sin_nombre_13);}.cls-8{fill:url(#Degradado_sin_nombre_3);}.cls-9{mask:url(#mask);}.cls-10{fill:#0df1f9;mix-blend-mode:screen;opacity:0.59;}.cls-11{mask:url(#mask-2);}.cls-12{fill:#24a2ee;}.cls-13,.cls-14,.cls-15,.cls-16,.cls-17,.cls-21,.cls-22,.cls-23,.cls-27,.cls-28{mix-blend-mode:overlay;}.cls-13{fill:url(#Degradado_sin_nombre_19);}.cls-14{fill:#fff;}.cls-15{fill:url(#Degradado_sin_nombre_19-2);}.cls-16{fill:url(#Degradado_sin_nombre_27);}.cls-18{fill:url(#Degradado_sin_nombre_18);}.cls-19{fill:url(#Degradado_sin_nombre_23);}.cls-20{fill:url(#Degradado_sin_nombre_20);}.cls-21{fill:url(#Degradado_sin_nombre_19-3);}.cls-22{fill:url(#Degradado_sin_nombre_19-4);}.cls-23{fill:url(#Degradado_sin_nombre_27-2);}.cls-24{fill:url(#Degradado_sin_nombre_18-2);}.cls-25{fill:url(#Degradado_sin_nombre_23-2);}.cls-26{fill:url(#Degradado_sin_nombre_20-2);}.cls-27,.cls-28{stroke:#fff;stroke-miterlimit:10;}.cls-28{fill-rule:evenodd;}</style><radialGradient id="radial-gradient" cx="420.29" cy="1140.04" r="197.97" gradientTransform="matrix(2.03, 2.03, -2.03, 2.03, 2377.08, -3380.64)" gradientUnits="userSpaceOnUse"><stop offset="0" stop-color="#fff"/><stop offset="0.14" stop-color="#cacaca"/><stop offset="0.31" stop-color="#8e8e8e"/><stop offset="0.48" stop-color="#5b5b5b"/><stop offset="0.64" stop-color="#343434"/><stop offset="0.78" stop-color="#171717"/><stop offset="0.91" stop-color="#060606"/><stop offset="1"/></radialGradient><radialGradient id="radial-gradient-2" cx="228.95" cy="1518.31" r="197.97" gradientTransform="matrix(2.03, 2.03, -2.03, 2.03, 2983.41, -2674.94)" xlink:href="#radial-gradient"/><clipPath id="clip-path"><rect class="cls-3" y="0.64" width="1301.92" height="860.2"/></clipPath><clipPath id="clip-path-2"><rect class="cls-3" x="-32.12" y="-23.66" width="1389.64" height="926.43"/></clipPath><radialGradient id="Degradado_sin_nombre_13" cx="1035.27" cy="-202.26" r="1961.76" gradientTransform="translate(504.91 -339.86) rotate(45)" gradientUnits="userSpaceOnUse"><stop offset="0" stop-color="#183651"/><stop offset="0" stop-color="#183651"/><stop offset="0.19" stop-color="#0d213b"/><stop offset="0.4" stop-color="#06122c"/><stop offset="0.65" stop-color="#010a23"/><stop offset="1" stop-color="#000720"/></radialGradient><linearGradient id="Degradado_sin_nombre_3" x1="668.62" y1="-50.88" x2="668.62" y2="949.12" gradientTransform="translate(7.49 4.04) scale(1.07 0.99)" gradientUnits="userSpaceOnUse"><stop offset="0"/><stop offset="1" stop-color="#0e5a7f"/></linearGradient><mask id="mask" x="349.94" y="-784.48" width="1135.42" height="1135.42" maskUnits="userSpaceOnUse"><circle class="cls-1" cx="917.65" cy="-216.77" r="567.71" transform="translate(422.05 585.39) rotate(-45)"/></mask><mask id="mask-2" x="-198.75" y="300.27" width="1135.42" height="1135.42" maskUnits="userSpaceOnUse"><circle class="cls-2" cx="368.96" cy="867.98" r="567.71" transform="translate(-505.69 515.12) rotate(-45)"/></mask><linearGradient id="Degradado_sin_nombre_19" x1="-2.89" y1="105.18" x2="312.83" y2="105.18" gradientUnits="userSpaceOnUse"><stop offset="0" stop-color="#fff" stop-opacity="0"/><stop offset="0.46" stop-color="#57b7f2" stop-opacity="0"/><stop offset="0.51" stop-color="#24a2ee" stop-opacity="0"/><stop offset="0.68" stop-color="#1bc0f2" stop-opacity="0.38"/><stop offset="0.84" stop-color="#14dbf6" stop-opacity="0.72"/><stop offset="0.95" stop-color="#0febf8" stop-opacity="0.92"/><stop offset="1" stop-color="#0df1f9"/></linearGradient><linearGradient id="Degradado_sin_nombre_19-2" x1="-2.89" y1="740.98" x2="312.83" y2="740.98" xlink:href="#Degradado_sin_nombre_19"/><linearGradient id="Degradado_sin_nombre_27" x1="88.42" y1="815.46" x2="282.7" y2="815.46" gradientUnits="userSpaceOnUse"><stop offset="0" stop-color="#fff" stop-opacity="0"/><stop offset="0.46" stop-color="#57b7f2" stop-opacity="0"/><stop offset="0.51" stop-color="#24a2ee" stop-opacity="0"/><stop offset="0.6" stop-color="#1fb2f0" stop-opacity="0.2"/><stop offset="0.8" stop-color="#16d3f5" stop-opacity="0.63"/><stop offset="0.94" stop-color="#0fe9f8" stop-opacity="0.9"/><stop offset="1" stop-color="#0df1f9"/></linearGradient><linearGradient id="Degradado_sin_nombre_18" x1="-40.53" y1="402.77" x2="289.35" y2="402.77" gradientUnits="userSpaceOnUse"><stop offset="0" stop-color="#fff" stop-opacity="0"/><stop offset="0.46" stop-color="#57b7f2" stop-opacity="0"/><stop offset="0.51" stop-color="#24a2ee" stop-opacity="0"/><stop offset="0.51" stop-color="#24a3ee" stop-opacity="0.01"/><stop offset="0.57" stop-color="#1fb5f1" stop-opacity="0.24"/><stop offset="0.63" stop-color="#1ac5f3" stop-opacity="0.44"/><stop offset="0.69" stop-color="#16d2f5" stop-opacity="0.61"/><stop offset="0.75" stop-color="#13ddf6" stop-opacity="0.75"/><stop offset="0.81" stop-color="#10e6f7" stop-opacity="0.86"/><stop offset="0.87" stop-color="#0eecf8" stop-opacity="0.94"/><stop offset="0.93" stop-color="#0df0f9" stop-opacity="0.98"/><stop offset="1" stop-color="#0df1f9"/></linearGradient><linearGradient id="Degradado_sin_nombre_23" x1="-130.98" y1="402.77" x2="198.9" y2="402.77" gradientUnits="userSpaceOnUse"><stop offset="0" stop-color="#fff" stop-opacity="0"/><stop offset="0.46" stop-color="#57b7f2" stop-opacity="0"/><stop offset="0.51" stop-color="#24a2ee" stop-opacity="0"/><stop offset="0.59" stop-color="#24a3ee" stop-opacity="0.01"/><stop offset="0.66" stop-color="#23a6ef" stop-opacity="0.05"/><stop offset="0.72" stop-color="#21abef" stop-opacity="0.12"/><stop offset="0.77" stop-color="#1fb3f0" stop-opacity="0.21"/><stop offset="0.82" stop-color="#1cbcf2" stop-opacity="0.33"/><stop offset="0.87" stop-color="#19c8f3" stop-opacity="0.48"/><stop offset="0.92" stop-color="#15d5f5" stop-opacity="0.65"/><stop offset="0.97" stop-color="#11e5f7" stop-opacity="0.85"/><stop offset="1" stop-color="#0df1f9"/></linearGradient><linearGradient id="Degradado_sin_nombre_20" x1="-218.77" y1="402.77" x2="111.11" y2="402.77" gradientUnits="userSpaceOnUse"><stop offset="0" stop-color="#fff" stop-opacity="0"/><stop offset="0.46" stop-color="#57b7f2" stop-opacity="0"/><stop offset="0.51" stop-color="#24a2ee" stop-opacity="0"/><stop offset="0.69" stop-color="#24a3ee" stop-opacity="0.01"/><stop offset="0.76" stop-color="#23a5ee" stop-opacity="0.03"/><stop offset="0.81" stop-color="#22a9ef" stop-opacity="0.08"/><stop offset="0.84" stop-color="#21aef0" stop-opacity="0.15"/><stop offset="0.88" stop-color="#1fb5f1" stop-opacity="0.24"/><stop offset="0.91" stop-color="#1cbdf2" stop-opacity="0.35"/><stop offset="0.93" stop-color="#19c8f3" stop-opacity="0.48"/><stop offset="0.96" stop-color="#16d4f5" stop-opacity="0.63"/><stop offset="0.98" stop-color="#12e1f7" stop-opacity="0.8"/><stop offset="1" stop-color="#0df0f9" stop-opacity="0.98"/><stop offset="1" stop-color="#0df1f9"/></linearGradient><linearGradient id="Degradado_sin_nombre_19-3" x1="717.8" y1="105.18" x2="1033.52" y2="105.18" gradientTransform="matrix(-1, 0, 0, 1, 2028.78, 0)" xlink:href="#Degradado_sin_nombre_19"/><linearGradient id="Degradado_sin_nombre_19-4" x1="717.8" y1="740.98" x2="1033.52" y2="740.98" gradientTransform="matrix(-1, 0, 0, 1, 2028.78, 0)" xlink:href="#Degradado_sin_nombre_19"/><linearGradient id="Degradado_sin_nombre_27-2" x1="809.12" y1="815.46" x2="1003.39" y2="815.46" gradientTransform="matrix(-1, 0, 0, 1, 2028.78, 0)" xlink:href="#Degradado_sin_nombre_27"/><linearGradient id="Degradado_sin_nombre_18-2" x1="680.17" y1="402.77" x2="1010.05" y2="402.77" gradientTransform="matrix(-1, 0, 0, 1, 2028.78, 0)" xlink:href="#Degradado_sin_nombre_18"/><linearGradient id="Degradado_sin_nombre_23-2" x1="589.71" y1="402.77" x2="919.59" y2="402.77" gradientTransform="matrix(-1, 0, 0, 1, 2028.78, 0)" xlink:href="#Degradado_sin_nombre_23"/><linearGradient id="Degradado_sin_nombre_20-2" x1="501.92" y1="402.77" x2="831.8" y2="402.77" gradientTransform="matrix(-1, 0, 0, 1, 2028.78, 0)" xlink:href="#Degradado_sin_nombre_20"/></defs><g class="cls-4"><g id="BACKGROUND"><g class="cls-5"><g class="cls-6"><circle class="cls-7" cx="662.7" cy="439.55" r="865.79" transform="translate(-116.71 597.34) rotate(-45)"/></g><rect class="cls-8" x="-79.29" y="-46.33" width="1600" height="990"/><g class="cls-9"><circle class="cls-10" cx="917.65" cy="-216.77" r="567.71" transform="translate(422.05 585.39) rotate(-45)"/></g><g class="cls-11"><circle class="cls-10" cx="368.96" cy="867.98" r="567.71" transform="translate(-505.69 515.12) rotate(-45)"/></g><path class="cls-12" d="M176.59,597.56a2.43,2.43,0,1,0-1.94,2.84A2.43,2.43,0,0,0,176.59,597.56Z"/><path class="cls-12" d="M62,490.45a2.43,2.43,0,1,0-1.94,2.83A2.43,2.43,0,0,0,62,490.45Z"/><path class="cls-12" d="M165.27,380.72a2.43,2.43,0,1,0-1.94,2.83A2.42,2.42,0,0,0,165.27,380.72Z"/><path class="cls-12" d="M125.68,211.89a2.43,2.43,0,1,0-1.94,2.83A2.42,2.42,0,0,0,125.68,211.89Z"/><path class="cls-12" d="M899.56,148.06a2.43,2.43,0,1,0-1.94,2.84A2.44,2.44,0,0,0,899.56,148.06Z"/><path class="cls-12" d="M1137.87,215a2.43,2.43,0,1,0-1.94,2.83A2.43,2.43,0,0,0,1137.87,215Z"/><path class="cls-12" d="M1206.58,529.23a2.43,2.43,0,1,0-1.94,2.83A2.43,2.43,0,0,0,1206.58,529.23Z"/><path class="cls-12" d="M1028.32,561.52a2.43,2.43,0,1,0-1.94,2.83A2.42,2.42,0,0,0,1028.32,561.52Z"/><path class="cls-12" d="M1033.72,672.52a2.43,2.43,0,1,0-1.94,2.84A2.45,2.45,0,0,0,1033.72,672.52Z"/><path class="cls-12" d="M1144.38,771.09a2.43,2.43,0,1,0-1.94,2.83A2.42,2.42,0,0,0,1144.38,771.09Z"/><path class="cls-12" d="M966.1,819.28a2.43,2.43,0,1,0-1.94,2.83A2.43,2.43,0,0,0,966.1,819.28Z"/><path class="cls-12" d="M246.11,737.62a2.43,2.43,0,1,0-1.94,2.83A2.42,2.42,0,0,0,246.11,737.62Z"/><path class="cls-12" d="M68.43,703.89a2.43,2.43,0,1,0-1.94,2.83A2.42,2.42,0,0,0,68.43,703.89Z"/><path class="cls-12" d="M131.85,809.63a2.43,2.43,0,1,0-1.94,2.83A2.43,2.43,0,0,0,131.85,809.63Z"/><polygon class="cls-3" points="32.73 651.76 -94.97 810.49 -95.1 727.73 -0.75 610.46 32.73 651.76"/><polygon class="cls-3" points="-109.52 37.56 65.54 253.53 31.67 295.63 -109.4 121.59 -109.52 37.56"/><polygon class="cls-3" points="184.37 635.8 56.66 794.53 56.54 711.77 150.89 594.5 184.37 635.8"/><polygon class="cls-3" points="55.42 37.56 230.48 253.53 196.61 295.63 55.54 121.59 55.42 37.56"/><polygon class="cls-13" points="230.48 253.53 55.42 37.56 55.54 121.59 -2.62 49.84 -2.89 -136.16 312.83 253.34 237.86 346.52 196.61 295.63 230.48 253.53"/><polygon class="cls-14" points="139.09 -60.6 246.82 72.3 246.74 20.59 282.53 64.74 282.7 179.19 88.42 -60.49 134.55 -117.82 159.93 -86.51 139.09 -60.6"/><polygon class="cls-15" points="230.48 592.62 55.42 808.6 55.54 724.57 -2.62 796.32 -2.89 982.32 312.83 592.81 237.86 499.63 196.61 550.52 230.48 592.62"/><polygon class="cls-16" points="139.09 906.76 246.82 773.86 246.74 825.56 282.53 781.41 282.7 666.96 88.42 906.64 134.55 963.97 159.93 932.66 139.09 906.76"/><g class="cls-17"><polygon class="cls-18" points="289.35 422.73 -40.53 22.35 -17.35 532.33 -6.47 110.86 250.53 422.78 -7.84 741.59 -5.95 783.2 289.35 422.73"/></g><g class="cls-17"><polygon class="cls-19" points="198.9 422.73 -130.98 22.35 -107.8 532.33 -96.93 110.86 160.07 422.78 -98.29 741.59 -96.4 783.2 198.9 422.73"/></g><g class="cls-17"><polygon class="cls-20" points="111.11 422.73 -218.77 22.35 -195.59 532.33 -184.72 110.86 72.28 422.78 -186.08 741.59 -184.19 783.2 111.11 422.73"/></g><polygon class="cls-3" points="1457.6 37.56 1282.54 253.53 1316.41 295.63 1457.48 121.59 1457.6 37.56"/><polygon class="cls-3" points="1062.85 651.76 1190.55 810.49 1190.67 727.73 1096.33 610.46 1062.85 651.76"/><polygon class="cls-3" points="1205.1 37.56 1030.04 253.53 1063.9 295.63 1204.97 121.59 1205.1 37.56"/><polygon class="cls-3" points="1017.21 512.13 971.35 568.7 995.67 598.93 1041.53 542.36 1017.21 512.13"/><polygon class="cls-3" points="994.69 651.76 1122.39 810.49 1122.52 727.73 1028.17 610.46 994.69 651.76"/><polygon class="cls-3" points="1136.94 37.56 961.88 253.53 995.74 295.63 1136.81 121.59 1136.94 37.56"/><polygon class="cls-3" points="1123.71 635.8 1251.42 794.53 1251.54 711.77 1157.19 594.5 1123.71 635.8"/><polygon class="cls-3" points="1252.66 37.56 1077.6 253.53 1111.47 295.63 1252.54 121.59 1252.66 37.56"/><polygon class="cls-21" points="1077.6 253.53 1252.66 37.56 1252.54 121.59 1310.7 49.84 1310.97 -136.16 995.25 253.34 1070.22 346.52 1111.47 295.63 1077.6 253.53"/><polygon class="cls-14" points="1168.99 -60.6 1061.26 72.3 1061.34 20.59 1025.55 64.74 1025.38 179.19 1219.66 -60.49 1173.53 -117.82 1148.15 -86.51 1168.99 -60.6"/><polygon class="cls-22" points="1077.6 592.62 1252.66 808.6 1252.54 724.57 1310.7 796.32 1310.97 982.32 995.25 592.81 1070.22 499.63 1111.47 550.52 1077.6 592.62"/><polygon class="cls-23" points="1168.99 906.76 1061.26 773.86 1061.34 825.56 1025.55 781.41 1025.38 666.96 1219.66 906.64 1173.53 963.97 1148.15 932.66 1168.99 906.76"/><g class="cls-17"><polygon class="cls-24" points="1018.73 422.73 1348.61 22.35 1325.43 532.33 1314.56 110.86 1057.56 422.78 1315.92 741.59 1314.03 783.2 1018.73 422.73"/></g><g class="cls-17"><polygon class="cls-25" points="1109.18 422.73 1439.06 22.35 1415.88 532.33 1405.01 110.86 1148.01 422.78 1406.37 741.59 1404.48 783.2 1109.18 422.73"/></g><g class="cls-17"><polygon class="cls-26" points="1196.97 422.73 1526.85 22.35 1503.67 532.33 1492.8 110.86 1235.8 422.78 1494.16 741.59 1492.27 783.2 1196.97 422.73"/></g><polyline class="cls-27" points="72.86 -74.09 366.17 279.73 419.37 -117.32"/><polyline class="cls-28" points="84.84 -26.87 388.11 348.24 473.91 -193.8"/><polyline class="cls-28" points="-124 -76.75 396.43 531.13 84.17 901.25"/><polyline class="cls-28" points="-45.52 31.66 436.66 596.31 168.64 917.55"/><polyline class="cls-27" points="1233.42 -74.09 940.12 279.73 886.91 -117.32"/><polyline class="cls-28" points="1221.45 -26.87 918.17 348.24 832.38 -193.8"/><polyline class="cls-28" points="1430.29 -76.75 909.86 531.13 1222.12 901.25"/><polyline class="cls-28" points="1351.81 31.66 869.62 596.31 1137.65 917.55"/></g></g></g></svg>