<svg id="Layer_1" data-name="Layer 1" xmlns="http://www.w3.org/2000/svg" xmlns:xlink="http://www.w3.org/1999/xlink" viewBox="0 0 2249.57 312.36"><defs><style>.cls-1{fill:url(#linear-gradient);}.cls-2{fill:url(#linear-gradient-2);}.cls-3{fill:#d6e7ee;}.cls-4{fill:#0179ff;}</style><linearGradient id="linear-gradient" x1="2.49" y1="156.18" x2="412.65" y2="156.18" gradientUnits="userSpaceOnUse"><stop offset="0" stop-color="#0179ff"/><stop offset="0.04" stop-color="#0a7eff"/><stop offset="0.11" stop-color="#248bff"/><stop offset="0.2" stop-color="#4da1ff"/><stop offset="0.31" stop-color="#87bfff"/><stop offset="0.43" stop-color="#cfe6ff"/><stop offset="0.5" stop-color="#fff"/><stop offset="0.58" stop-color="#c9d7f4"/><stop offset="0.69" stop-color="#83a3e5"/><stop offset="0.8" stop-color="#4c7ad9"/><stop offset="0.89" stop-color="#245cd1"/><stop offset="0.96" stop-color="#0b4acc"/><stop offset="1" stop-color="#0243ca"/></linearGradient><linearGradient id="linear-gradient-2" x1="0" y1="202.09" x2="311.62" y2="202.09" xlink:href="#linear-gradient"/></defs><path class="cls-1" d="M381.32,281.17l23.6,31.19H344.56l-4.24-5.65L314.17,272.1l-44.36-58.69-24.2-32.06h47.93A69.35,69.35,0,0,0,342.67,161c.68-.67,1.35-1.41,2.09-2.15a70,70,0,0,0,18.15-43.35c.06-1.14.06-2.35.06-3.56a69.3,69.3,0,0,0-5.44-27,.47.47,0,0,0-.14-.27,69.35,69.35,0,0,0-63.85-42.22H119.11a191.21,191.21,0,0,0-59.77,9.28,175.36,175.36,0,0,0-37.71,18c-.18.1-.35.21-.52.32A158.48,158.48,0,0,0,2.49,83.69,106.8,106.8,0,0,1,106.74,0H306A106.73,106.73,0,0,1,412.65,106.74a106.91,106.91,0,0,1-84.23,104.32l23.87,31.59Z"/><path class="cls-2" d="M50.21,197.22a70.87,70.87,0,0,0-.54,8.46,69.5,69.5,0,0,0,69.44,69.51h87.52L160,213.41H118.17a16.06,16.06,0,0,1-16-16.06,16,16,0,0,1,16-16h78l24.2,32.06L267,275.19l28.09,37.17H106.74A106.69,106.69,0,0,1,0,205.68C0,187.81,4.44,163.81,12.23,149a106.52,106.52,0,0,1,37.51-40.73,106.47,106.47,0,0,1,57-16.47H293a18.59,18.59,0,0,1,18.62,18.62c0,10.08-8.07,25.54-18.08,25.81H119.11A69.19,69.19,0,0,0,70,156.62c-.74.74-1.41,1.47-2.08,2.21A68.56,68.56,0,0,0,50.21,197.22Z"/><path class="cls-3" d="M526.11,157.2c0-58.46,38.83-92.36,85.87-92.36,25.58,0,43.74,10.9,55.6,22.87l-21,25.54c-8.74-8-18.16-14-33.26-14-27.12,0-46.39,21.3-46.39,56.63,0,36.22,16.4,57.27,49.57,57.27,7.06,0,14.37-1.85,18.66-5.25V177.46H606V144.94h64.57v81.24c-12.15,11.89-33.56,21.34-58.14,21.34C563.86,247.52,526.11,216.55,526.11,157.2Z"/><path class="cls-3" d="M697.44,207.08c0-28.26,22.48-43.56,75.53-49.16-.79-11.73-6.65-19.38-21.21-19.38-11.25,0-22.48,4.73-35.49,12.11l-14.12-26.09c17-10.4,36.2-17.65,57.28-17.65,34.29,0,53.28,19.59,53.28,60.69v76.68H780.29l-2.86-13.74h-1c-11.29,9.92-24,17-39,17C713,247.52,697.44,229.67,697.44,207.08ZM773,205.31V181.88c-28.26,3.82-37.48,11.89-37.48,22,0,8.65,6,12.88,15.39,12.88C759.88,216.79,765.92,212.33,773,205.31Z"/><path class="cls-3" d="M846.08,110.16H878.5l2.87,17.2h1c11-11.07,23-20.45,40.65-20.45,18.86,0,30.25,8.14,37,22.58,11.8-12.31,24.39-22.58,42.11-22.58,29,0,41.95,20.58,41.95,54.1v83.27h-39.74V166.1c0-19.3-5.28-25.34-16.56-25.34-6.74,0-14.37,4.2-22.83,13v90.48H925.21V166.1c0-19.3-5.27-25.34-16.56-25.34-6.64,0-14.37,4.2-22.83,13v90.48H846.08Z"/><path class="cls-3" d="M1070,177.26c0-43.51,31-70.35,63.27-70.35,38.2,0,57.12,27.77,57.12,64.38a90.25,90.25,0,0,1-1.65,17.56h-80.24c3.57,19.45,16.89,28.38,34.79,28.38,10.14,0,19.27-3.08,29-8.77l13.14,23.95c-13.74,9.51-31.68,15.11-47.58,15.11C1099.6,247.52,1070,221.66,1070,177.26Zm86.44-14.69c0-14.75-6.42-25.37-22.28-25.37-12.56,0-23.4,8.42-26.1,25.37Z"/><path class="cls-3" d="M1206,228.79,1223.83,204c12.15,9.2,23.38,14.09,34.6,14.09,11.83,0,17-4.51,17-11.53,0-8.84-13.3-12.85-27.1-18.25-16.44-6.37-35.49-17.28-35.49-39.44,0-25,20.3-42,51.24-42,20.55,0,35.85,8.3,47.27,17l-17.78,23.86c-9.55-6.94-19-11.45-28.25-11.45-10.26,0-15.32,4-15.32,10.71,0,8.55,12.56,11.83,26.46,16.88,17,6.28,36.13,15.84,36.13,40.36,0,24.27-19.15,43.26-55.09,43.26C1239.76,247.52,1219.54,239.86,1206,228.79Z"/><path class="cls-4" d="M1395,73.06h63.45c37.38,0,68,13,68,54.86,0,40.5-30.63,57.93-68,57.93h-23.62v63.4H1395Zm60.21,81.16c20.95,0,32.21-9,32.21-26.3s-11.26-23.24-32.21-23.24h-20.38v49.54Zm-4,21.13,27.55-25.49,56.23,99.39h-44.57Z"/><path class="cls-4" d="M1546.88,182.24c0-43.51,31-70.35,63.26-70.35,38.2,0,57.13,27.77,57.13,64.37a89.13,89.13,0,0,1-1.66,17.56h-80.23c3.56,19.46,16.88,28.39,34.78,28.39,10.15,0,19.27-3.09,29-8.78l13.14,24c-13.75,9.51-31.69,15.11-47.59,15.11C1576.49,252.5,1546.88,226.64,1546.88,182.24Zm86.44-14.7c0-14.74-6.42-25.36-22.29-25.36-12.55,0-23.39,8.42-26.1,25.36Z"/><path class="cls-4" d="M1694.71,207.58V59.86h39.74V209.2c0,8.52,3.94,11.23,7.19,11.23a17.31,17.31,0,0,0,4.86-.54l4.74,29.3c-4.39,1.88-10.91,3.31-19.94,3.31C1704,252.5,1694.71,234.71,1694.71,207.58Z"/><path class="cls-4" d="M1764.24,182.24c0-43.51,31-70.35,63.26-70.35,38.2,0,57.13,27.77,57.13,64.37a89.13,89.13,0,0,1-1.66,17.56h-80.23c3.56,19.46,16.88,28.39,34.78,28.39,10.15,0,19.27-3.09,29-8.78l13.14,24c-13.75,9.51-31.69,15.11-47.59,15.11C1793.85,252.5,1764.24,226.64,1764.24,182.24Zm86.44-14.7c0-14.74-6.42-25.36-22.29-25.36-12.55,0-23.39,8.42-26.1,25.36Z"/><path class="cls-4" d="M1902.93,212.06c0-28.26,22.48-43.56,75.53-49.16-.79-11.73-6.65-19.39-21.21-19.39-11.25,0-22.48,4.74-35.49,12.12l-14.12-26.09c17-10.4,36.2-17.65,57.28-17.65,34.29,0,53.28,19.59,53.28,60.69v76.67h-32.42l-2.86-13.73h-1c-11.29,9.92-24,17-39,17C1918.45,252.5,1902.93,234.65,1902.93,212.06Zm75.53-1.77V186.86c-28.26,3.81-37.48,11.89-37.48,22,0,8.65,6,12.87,15.39,12.87C1965.37,221.76,1971.41,217.31,1978.46,210.29Z"/><path class="cls-4" d="M2051.57,115.13H2084l2.87,17.21h1c11-11.07,23-20.45,40.65-20.45,18.86,0,30.25,8.14,37,22.58,11.8-12.31,24.39-22.58,42.11-22.58,29,0,42,20.58,42,54.1v83.26h-39.74V171.08c0-19.3-5.28-25.34-16.56-25.34-6.74,0-14.37,4.2-22.83,13v90.48H2130.7V171.08c0-19.3-5.28-25.34-16.56-25.34-6.65,0-14.37,4.2-22.83,13v90.48h-39.74Z"/></svg>