<svg fill="#00102a" id="Layer_1" data-name="Layer 1" xmlns="http://www.w3.org/2000/svg" viewBox="0 0 185.6 183.98"><path d="M0,49.29c1.63-8.48,3.15-17,7.77-24.54C18.31,7.54,34.8.93,53.81.47q38.89-1,77.81,0c17.61.43,33.27,6.23,44,21.48,6.9,9.82,9.47,21.07,9.64,32.69.38,24.92.56,49.85,0,74.76-.46,20.07-7.43,37.19-26.22,47.38a59.12,59.12,0,0,1-27.89,6.87c-25.6.3-51.21.55-76.8,0-19.2-.44-35.88-6.92-46.55-24.31C3.14,151.77,1.63,143.26,0,134.77ZM92.87,18c-12.72,0-25.44-.24-38.15.06C34.87,18.56,22.66,27.86,19,45A54.58,54.58,0,0,0,17.69,56c-.12,24.07-.44,48.16,0,72.22S30.33,165,53.44,165.87c26.09,1,52.22.88,78.32,0,19.24-.63,30.68-9.9,34.36-26.53a43.41,43.41,0,0,0,1.29-9c.14-27.44,1.65-54.93-.83-82.32-1.47-16.23-12.34-26.83-28.51-29C123.05,16.88,107.93,18.34,92.87,18Z"/><path d="M140.69,92.34c-.07,25.86-21.53,47.12-47.89,47.44S44.44,118.27,44.52,91.72c.08-26.1,22.35-47.93,48.4-47.43C119.64,44.79,140.77,66.05,140.69,92.34Zm-17.83-.23A30.26,30.26,0,1,0,92.53,122,30.22,30.22,0,0,0,122.86,92.11Z"/><path d="M142,31.73a11.65,11.65,0,0,1,11.74,11.49,11.69,11.69,0,0,1-23.37.1A11.55,11.55,0,0,1,142,31.73Z"/></svg>