<svg id="Layer_1" data-name="Layer 1" xmlns="http://www.w3.org/2000/svg" viewBox="0 0 748.77 566.79"><defs><style>.cls-1{fill:#018abe;}</style></defs><path class="cls-1" d="M691.94,510.2l42.81,56.59H625.22l-7.69-10.24-47.44-62.82-80.5-106.48-43.91-58.18h87a125.84,125.84,0,0,0,89.16-36.95c1.22-1.22,2.44-2.56,3.78-3.9a127,127,0,0,0,32.94-78.68c.12-2.07.12-4.27.12-6.46a125.73,125.73,0,0,0-9.88-49,.89.89,0,0,0-.25-.49A125.87,125.87,0,0,0,532.64,77H216.13C179.69,77,142.3,82.3,107.68,93.8a318.27,318.27,0,0,0-68.44,32.58l-.94.59A290.46,290.46,0,0,0,4.51,151.85,193.8,193.8,0,0,1,193.69,0H555.21C662.05,0,748.77,86.72,748.77,193.69A194.07,194.07,0,0,1,596,383l43.29,57.32Z"/><path class="cls-1" d="M91.11,357.86a125.89,125.89,0,0,0,125,141.49H374.94l-84.65-112.1H214.42a29.14,29.14,0,0,1-29-29.15,29,29,0,0,1,29-29H355.91l43.91,58.18,84.64,112.1,51,67.44H193.69C86.72,566.79,0,480.2,0,373.23c0-32.45,8.05-76,22.2-102.82a190.12,190.12,0,0,1,34.52-47.08,193.38,193.38,0,0,1,137-56.72h338a33.73,33.73,0,0,1,33.78,33.79c0,18.29-14.63,46.35-32.81,46.83H216.13a125.56,125.56,0,0,0-89,37c-1.34,1.34-2.56,2.68-3.78,4A124.35,124.35,0,0,0,91.11,357.86Z"/></svg>