<svg fill="#00102a" id="Layer_1" data-name="Layer 1" xmlns="http://www.w3.org/2000/svg" viewBox="0 0 181.09 148.75"><path d="M0,131.46c19.92,1.75,37.36-3,53.5-14.54C50,116,47,115.43,44.18,114.53c-10.82-3.41-18.33-10.57-23-20.77-1.45-3.15-1.13-3.4,2.31-3.34s7.16.57,11.38-1a38.09,38.09,0,0,1-16-8.8A36,36,0,0,1,6.94,56.34c-.3-3.89.19-4.17,3.67-2.58A26.51,26.51,0,0,0,21.8,56.35c-2.66-3.05-5.54-5.27-7.59-8.24C6.06,36.29,4.68,23.79,10.3,10.57c1.5-3.52,2.09-3.65,4.63-.8A106.45,106.45,0,0,0,60.08,40.22a106.33,106.33,0,0,0,24.09,5.32c4.23.43,4.59,0,4.1-4.16-1.73-14.74,6.61-30.17,20.13-37.2s30.9-5,41.92,5a6.57,6.57,0,0,0,6.88,1.65,80.94,80.94,0,0,0,16.58-6.41c.81-.43,1.53-1.32,3.07-.75-2.52,7.89-7.52,13.9-13.84,19.09a72.7,72.7,0,0,0,18.07-4.89c.14,2.08-1.09,3.13-2,4.25A64.8,64.8,0,0,1,166.4,35a7,7,0,0,0-3,6.42c.37,24.81-7.59,46.93-22.42,66.54-17.62,23.3-41.29,36.44-70.22,40A106.33,106.33,0,0,1,3.43,134.28c-.76-.43-1.5-.91-2.22-1.41A12.63,12.63,0,0,1,0,131.46Z"/></svg>